<mxfile host="65bd71144e">
    <diagram id="02JK7528nfHaCugBu0wU" name="Page-1">
        <mxGraphModel dx="3136" dy="1020" grid="0" gridSize="10" guides="1" tooltips="1" connect="1" arrows="1" fold="1" page="0" pageScale="1" pageWidth="850" pageHeight="1100" background="none" math="0" shadow="0">
            <root>
                <mxCell id="0"/>
                <mxCell id="1" parent="0"/>
                <mxCell id="7" style="edgeStyle=none;html=1;exitX=0;exitY=0.5;exitDx=0;exitDy=0;entryX=0;entryY=0.5;entryDx=0;entryDy=0;endArrow=none;endFill=0;fontSize=25;fontFamily=Georgia;fillColor=#1ba1e2;strokeColor=#006EAF;strokeWidth=5;" edge="1" parent="1" source="2" target="3">
                    <mxGeometry relative="1" as="geometry"/>
                </mxCell>
                <mxCell id="2" value="M1" style="ellipse;whiteSpace=wrap;html=1;aspect=fixed;fontSize=25;fillColor=#d5e8d4;strokeColor=#82b366;fontFamily=Georgia;" vertex="1" parent="1">
                    <mxGeometry x="882" y="96" width="80" height="80" as="geometry"/>
                </mxCell>
                <mxCell id="13" style="edgeStyle=none;html=1;exitX=1;exitY=0.5;exitDx=0;exitDy=0;entryX=0;entryY=0.5;entryDx=0;entryDy=0;fontFamily=Georgia;fontSize=25;endArrow=none;endFill=0;" edge="1" parent="1" source="3" target="4">
                    <mxGeometry relative="1" as="geometry"/>
                </mxCell>
                <mxCell id="3" value="4" style="ellipse;whiteSpace=wrap;html=1;aspect=fixed;fontSize=25;fillColor=#fff2cc;strokeColor=#d6b656;fontFamily=Georgia;" vertex="1" parent="1">
                    <mxGeometry x="404" y="94" width="80" height="80" as="geometry"/>
                </mxCell>
                <mxCell id="4" value="M2" style="ellipse;whiteSpace=wrap;html=1;aspect=fixed;fontSize=25;fillColor=#d5e8d4;strokeColor=#82b366;fontFamily=Georgia;" vertex="1" parent="1">
                    <mxGeometry x="882" y="412" width="80" height="80" as="geometry"/>
                </mxCell>
                <mxCell id="5" value="M3" style="ellipse;whiteSpace=wrap;html=1;aspect=fixed;fontSize=25;fillColor=#d5e8d4;strokeColor=#82b366;fontFamily=Georgia;" vertex="1" parent="1">
                    <mxGeometry x="880" y="728" width="80" height="80" as="geometry"/>
                </mxCell>
                <mxCell id="14" style="edgeStyle=none;html=1;exitX=1;exitY=0.5;exitDx=0;exitDy=0;entryX=0;entryY=0.5;entryDx=0;entryDy=0;fontFamily=Georgia;fontSize=25;endArrow=none;endFill=0;fillColor=#1ba1e2;strokeColor=#006EAF;strokeWidth=5;" edge="1" parent="1" source="6" target="4">
                    <mxGeometry relative="1" as="geometry"/>
                </mxCell>
                <mxCell id="6" value="6" style="ellipse;whiteSpace=wrap;html=1;aspect=fixed;fontSize=25;fillColor=#fff2cc;strokeColor=#d6b656;fontFamily=Georgia;" vertex="1" parent="1">
                    <mxGeometry x="404" y="305" width="80" height="80" as="geometry"/>
                </mxCell>
                <mxCell id="17" style="edgeStyle=none;html=1;exitX=1;exitY=0.5;exitDx=0;exitDy=0;entryX=0;entryY=0.5;entryDx=0;entryDy=0;fontFamily=Georgia;fontSize=25;endArrow=none;endFill=0;fillColor=#1ba1e2;strokeColor=#006EAF;strokeWidth=5;" edge="1" parent="1" source="11" target="5">
                    <mxGeometry relative="1" as="geometry"/>
                </mxCell>
                <mxCell id="11" value="10" style="ellipse;whiteSpace=wrap;html=1;aspect=fixed;fontSize=25;fillColor=#fff2cc;strokeColor=#d6b656;fontFamily=Georgia;" vertex="1" parent="1">
                    <mxGeometry x="404" y="728" width="80" height="80" as="geometry"/>
                </mxCell>
                <mxCell id="15" style="edgeStyle=none;html=1;exitX=1;exitY=0.5;exitDx=0;exitDy=0;entryX=0;entryY=0.5;entryDx=0;entryDy=0;fontFamily=Georgia;fontSize=25;endArrow=none;endFill=0;" edge="1" parent="1" source="12" target="4">
                    <mxGeometry relative="1" as="geometry"/>
                </mxCell>
                <mxCell id="16" style="edgeStyle=none;html=1;exitX=1;exitY=0.5;exitDx=0;exitDy=0;entryX=0;entryY=0.5;entryDx=0;entryDy=0;fontFamily=Georgia;fontSize=25;endArrow=none;endFill=0;fillColor=#1ba1e2;strokeColor=#006EAF;strokeWidth=5;" edge="1" parent="1" source="12" target="5">
                    <mxGeometry relative="1" as="geometry"/>
                </mxCell>
                <mxCell id="12" value="8" style="ellipse;whiteSpace=wrap;html=1;aspect=fixed;fontSize=25;fillColor=#fff2cc;strokeColor=#d6b656;fontFamily=Georgia;" vertex="1" parent="1">
                    <mxGeometry x="404" y="516" width="80" height="80" as="geometry"/>
                </mxCell>
                <mxCell id="18" value="T1" style="text;html=1;align=center;verticalAlign=middle;resizable=0;points=[];autosize=1;strokeColor=none;fillColor=none;fontSize=25;fontFamily=Georgia;" vertex="1" parent="1">
                    <mxGeometry x="325" y="99" width="44" height="42" as="geometry"/>
                </mxCell>
                <mxCell id="19" value="T2" style="text;html=1;align=center;verticalAlign=middle;resizable=0;points=[];autosize=1;strokeColor=none;fillColor=none;fontSize=25;fontFamily=Georgia;" vertex="1" parent="1">
                    <mxGeometry x="324" y="324" width="47" height="42" as="geometry"/>
                </mxCell>
                <mxCell id="20" value="T3" style="text;html=1;align=center;verticalAlign=middle;resizable=0;points=[];autosize=1;strokeColor=none;fillColor=none;fontSize=25;fontFamily=Georgia;" vertex="1" parent="1">
                    <mxGeometry x="324" y="535" width="47" height="42" as="geometry"/>
                </mxCell>
                <mxCell id="21" value="T4" style="text;html=1;align=center;verticalAlign=middle;resizable=0;points=[];autosize=1;strokeColor=none;fillColor=none;fontSize=25;fontFamily=Georgia;" vertex="1" parent="1">
                    <mxGeometry x="323" y="747" width="48" height="42" as="geometry"/>
                </mxCell>
                <mxCell id="23" value="4" style="text;html=1;align=center;verticalAlign=middle;resizable=0;points=[];autosize=1;strokeColor=none;fillColor=none;fontSize=25;fontFamily=Georgia;" vertex="1" parent="1">
                    <mxGeometry x="680" y="92" width="32" height="42" as="geometry"/>
                </mxCell>
                <mxCell id="24" value="6" style="text;html=1;align=center;verticalAlign=middle;resizable=0;points=[];autosize=1;strokeColor=none;fillColor=none;fontSize=25;fontFamily=Georgia;" vertex="1" parent="1">
                    <mxGeometry x="653" y="350" width="32" height="42" as="geometry"/>
                </mxCell>
                <mxCell id="25" value="2" style="text;html=1;align=center;verticalAlign=middle;resizable=0;points=[];autosize=1;strokeColor=none;fillColor=none;fontSize=25;fontFamily=Georgia;" vertex="1" parent="1">
                    <mxGeometry x="687" y="619" width="32" height="42" as="geometry"/>
                </mxCell>
                <mxCell id="26" value="10" style="text;html=1;align=center;verticalAlign=middle;resizable=0;points=[];autosize=1;strokeColor=none;fillColor=none;fontSize=25;fontFamily=Georgia;" vertex="1" parent="1">
                    <mxGeometry x="639" y="721" width="44" height="42" as="geometry"/>
                </mxCell>
                <mxCell id="33" value="Example 1" style="text;html=1;align=center;verticalAlign=middle;resizable=0;points=[];autosize=1;strokeColor=none;fillColor=none;fontSize=25;fontFamily=Georgia;fontColor=#000000;" vertex="1" parent="1">
                    <mxGeometry x="595" y="830" width="132" height="42" as="geometry"/>
                </mxCell>
                <mxCell id="35" value="M1" style="ellipse;whiteSpace=wrap;html=1;aspect=fixed;fontSize=25;fillColor=#d5e8d4;strokeColor=#82b366;fontFamily=Georgia;" vertex="1" parent="1">
                    <mxGeometry x="882" y="1055" width="80" height="80" as="geometry"/>
                </mxCell>
                <mxCell id="36" style="edgeStyle=none;html=1;exitX=1;exitY=0.5;exitDx=0;exitDy=0;entryX=0;entryY=0.5;entryDx=0;entryDy=0;fontFamily=Georgia;fontSize=25;endArrow=none;endFill=0;" edge="1" parent="1" source="37" target="38">
                    <mxGeometry relative="1" as="geometry"/>
                </mxCell>
                <mxCell id="56" style="edgeStyle=none;html=1;exitX=1;exitY=0.5;exitDx=0;exitDy=0;strokeWidth=1;fontFamily=Georgia;fontSize=25;fontColor=#000000;endArrow=none;endFill=0;" edge="1" parent="1" source="37" target="35">
                    <mxGeometry relative="1" as="geometry"/>
                </mxCell>
                <mxCell id="60" style="edgeStyle=none;html=1;exitX=0.5;exitY=1;exitDx=0;exitDy=0;entryX=0.5;entryY=0;entryDx=0;entryDy=0;strokeWidth=1;fontFamily=Georgia;fontSize=25;fontColor=#000000;endArrow=classic;endFill=1;" edge="1" parent="1" source="37" target="41">
                    <mxGeometry relative="1" as="geometry"/>
                </mxCell>
                <mxCell id="37" value="4" style="ellipse;whiteSpace=wrap;html=1;aspect=fixed;fontSize=25;fillColor=#fff2cc;strokeColor=#d6b656;fontFamily=Georgia;" vertex="1" parent="1">
                    <mxGeometry x="404" y="1053" width="80" height="80" as="geometry"/>
                </mxCell>
                <mxCell id="38" value="M2" style="ellipse;whiteSpace=wrap;html=1;aspect=fixed;fontSize=25;fillColor=#d5e8d4;strokeColor=#82b366;fontFamily=Georgia;" vertex="1" parent="1">
                    <mxGeometry x="882" y="1371" width="80" height="80" as="geometry"/>
                </mxCell>
                <mxCell id="57" style="edgeStyle=none;html=1;exitX=1;exitY=0.5;exitDx=0;exitDy=0;entryX=0;entryY=0.5;entryDx=0;entryDy=0;strokeWidth=1;fontFamily=Georgia;fontSize=25;fontColor=#000000;endArrow=none;endFill=0;" edge="1" parent="1" source="41" target="35">
                    <mxGeometry relative="1" as="geometry"/>
                </mxCell>
                <mxCell id="58" style="edgeStyle=none;html=1;exitX=1;exitY=0.5;exitDx=0;exitDy=0;entryX=0;entryY=0.5;entryDx=0;entryDy=0;strokeWidth=1;fontFamily=Georgia;fontSize=25;fontColor=#000000;endArrow=none;endFill=0;" edge="1" parent="1" source="41" target="38">
                    <mxGeometry relative="1" as="geometry"/>
                </mxCell>
                <mxCell id="61" style="edgeStyle=none;html=1;exitX=0.5;exitY=1;exitDx=0;exitDy=0;entryX=0.5;entryY=0;entryDx=0;entryDy=0;strokeWidth=1;fontFamily=Georgia;fontSize=25;fontColor=#000000;endArrow=classic;endFill=1;" edge="1" parent="1" source="41" target="46">
                    <mxGeometry relative="1" as="geometry"/>
                </mxCell>
                <mxCell id="41" value="5" style="ellipse;whiteSpace=wrap;html=1;aspect=fixed;fontSize=25;fillColor=#fff2cc;strokeColor=#d6b656;fontFamily=Georgia;" vertex="1" parent="1">
                    <mxGeometry x="404" y="1264" width="80" height="80" as="geometry"/>
                </mxCell>
                <mxCell id="44" style="edgeStyle=none;html=1;exitX=1;exitY=0.5;exitDx=0;exitDy=0;entryX=0;entryY=0.5;entryDx=0;entryDy=0;fontFamily=Georgia;fontSize=25;endArrow=none;endFill=0;" edge="1" parent="1" source="46" target="38">
                    <mxGeometry relative="1" as="geometry"/>
                </mxCell>
                <mxCell id="59" style="edgeStyle=none;html=1;exitX=1;exitY=0.5;exitDx=0;exitDy=0;entryX=0;entryY=0.5;entryDx=0;entryDy=0;strokeWidth=1;fontFamily=Georgia;fontSize=25;fontColor=#000000;endArrow=none;endFill=0;" edge="1" parent="1" source="46" target="35">
                    <mxGeometry relative="1" as="geometry"/>
                </mxCell>
                <mxCell id="62" style="edgeStyle=orthogonalEdgeStyle;html=1;exitX=0;exitY=0.5;exitDx=0;exitDy=0;entryX=0;entryY=0.5;entryDx=0;entryDy=0;strokeWidth=1;fontFamily=Georgia;fontSize=25;fontColor=#000000;endArrow=classic;endFill=1;curved=1;" edge="1" parent="1" source="46" target="37">
                    <mxGeometry relative="1" as="geometry">
                        <Array as="points">
                            <mxPoint x="289" y="1515"/>
                            <mxPoint x="289" y="1093"/>
                        </Array>
                    </mxGeometry>
                </mxCell>
                <mxCell id="46" value="6" style="ellipse;whiteSpace=wrap;html=1;aspect=fixed;fontSize=25;fillColor=#fff2cc;strokeColor=#d6b656;fontFamily=Georgia;" vertex="1" parent="1">
                    <mxGeometry x="404" y="1475" width="80" height="80" as="geometry"/>
                </mxCell>
                <mxCell id="47" value="T1" style="text;html=1;align=center;verticalAlign=middle;resizable=0;points=[];autosize=1;strokeColor=none;fillColor=none;fontSize=25;fontFamily=Georgia;" vertex="1" parent="1">
                    <mxGeometry x="325" y="1058" width="44" height="42" as="geometry"/>
                </mxCell>
                <mxCell id="48" value="T2" style="text;html=1;align=center;verticalAlign=middle;resizable=0;points=[];autosize=1;strokeColor=none;fillColor=none;fontSize=25;fontFamily=Georgia;" vertex="1" parent="1">
                    <mxGeometry x="323" y="1276" width="47" height="42" as="geometry"/>
                </mxCell>
                <mxCell id="49" value="T3" style="text;html=1;align=center;verticalAlign=middle;resizable=0;points=[];autosize=1;strokeColor=none;fillColor=none;fontSize=25;fontFamily=Georgia;" vertex="1" parent="1">
                    <mxGeometry x="324" y="1494" width="47" height="42" as="geometry"/>
                </mxCell>
                <mxCell id="51" value="2" style="text;html=1;align=center;verticalAlign=middle;resizable=0;points=[];autosize=1;strokeColor=none;fillColor=none;fontSize=25;fontFamily=Georgia;" vertex="1" parent="1">
                    <mxGeometry x="567" y="1055" width="32" height="42" as="geometry"/>
                </mxCell>
                <mxCell id="55" value="Example 2" style="text;html=1;align=center;verticalAlign=middle;resizable=0;points=[];autosize=1;strokeColor=none;fillColor=none;fontSize=25;fontFamily=Georgia;fontColor=#000000;" vertex="1" parent="1">
                    <mxGeometry x="602" y="1624" width="135" height="42" as="geometry"/>
                </mxCell>
                <mxCell id="63" value="2" style="text;html=1;align=center;verticalAlign=middle;resizable=0;points=[];autosize=1;strokeColor=none;fillColor=none;fontSize=25;fontFamily=Georgia;" vertex="1" parent="1">
                    <mxGeometry x="567" y="1121" width="32" height="42" as="geometry"/>
                </mxCell>
                <mxCell id="64" value="2.5" style="text;html=1;align=center;verticalAlign=middle;resizable=0;points=[];autosize=1;strokeColor=none;fillColor=none;fontSize=25;fontFamily=Georgia;" vertex="1" parent="1">
                    <mxGeometry x="522" y="1222" width="52" height="42" as="geometry"/>
                </mxCell>
                <mxCell id="66" value="2.5" style="text;html=1;align=center;verticalAlign=middle;resizable=0;points=[];autosize=1;strokeColor=none;fillColor=none;fontSize=25;fontFamily=Georgia;" vertex="1" parent="1">
                    <mxGeometry x="512" y="1321" width="52" height="42" as="geometry"/>
                </mxCell>
                <mxCell id="67" value="3" style="text;html=1;align=center;verticalAlign=middle;resizable=0;points=[];autosize=1;strokeColor=none;fillColor=none;fontSize=25;fontFamily=Georgia;fontColor=#000000;" vertex="1" parent="1">
                    <mxGeometry x="502" y="1417" width="32" height="42" as="geometry"/>
                </mxCell>
                <mxCell id="68" value="3" style="text;html=1;align=center;verticalAlign=middle;resizable=0;points=[];autosize=1;strokeColor=none;fillColor=none;fontSize=25;fontFamily=Georgia;fontColor=#000000;" vertex="1" parent="1">
                    <mxGeometry x="542" y="1499" width="32" height="42" as="geometry"/>
                </mxCell>
            </root>
        </mxGraphModel>
    </diagram>
</mxfile>